HIERARCHY
ROOT Hips
{
	OFFSET 0.00 0.00 0.00
	CHANNELS 6 Xposition Yposition Zposition Xrotation Yrotation Zrotation
	JOINT Spine
	{
		OFFSET 0.00000 1.15266 1.72900
		CHANNELS 3 Xrotation Yrotation Zrotation
		JOINT Spine1
		{
			OFFSET 0.00000 0.40032 2.27031
			CHANNELS 3 Xrotation Yrotation Zrotation
			JOINT Spine2
			{
				OFFSET 0.00000 0.20092 2.29656
				CHANNELS 3 Xrotation Yrotation Zrotation
				JOINT Spine3
				{
					OFFSET 0.00000 0.00000 2.30533
					CHANNELS 3 Xrotation Yrotation Zrotation
					JOINT Neck
					{
						OFFSET 0.00000 -0.86449 6.05149
						CHANNELS 3 Xrotation Yrotation Zrotation
						JOINT Head
						{
							OFFSET 0.00000 -0.55043 3.12167
							CHANNELS 3 Xrotation Yrotation Zrotation
							End Site
							{
								OFFSET 0.00000 0.00000 3.73175
							}
						}
					}
					JOINT RightShoulder
					{
						OFFSET -0.78828 -1.31380 4.25672
						CHANNELS 3 Xrotation Yrotation Zrotation
						JOINT RightArm
						{
							OFFSET -3.91513 0.00000 0.00000
							CHANNELS 3 Xrotation Yrotation Zrotation
							JOINT RightForeArm
							{
								OFFSET -6.91491 0.00000 0.00000
								CHANNELS 3 Xrotation Yrotation Zrotation
								JOINT RightHand
								{
									OFFSET -6.09622 0.00000 0.00000
									CHANNELS 3 Xrotation Yrotation Zrotation
									JOINT RightHandEnd
									{
										OFFSET -1.74995 0.00000 0.00000
										CHANNELS 3 Xrotation Yrotation Zrotation
										End Site
										{
											OFFSET -1.74995 0.00000 0.00000
										}
									}
									JOINT RightHandThumb1
									{
										OFFSET -0.69998 -1.16663 -0.46665
										CHANNELS 3 Yrotation Xrotation Zrotation
										End Site
										{
											OFFSET -1.69032 -0.45292 0.00000
										}
									}
								}
							}
						}
					}
					JOINT LeftShoulder
					{
						OFFSET 0.78828 -1.31380 4.25672
						CHANNELS 3 Xrotation Yrotation Zrotation
						JOINT LeftArm
						{
							OFFSET 3.91513 0.00000 0.00000
							CHANNELS 3 Xrotation Yrotation Zrotation
							JOINT LeftForeArm
							{
								OFFSET 6.91491 0.00000 0.00000
								CHANNELS 3 Xrotation Yrotation Zrotation
								JOINT LeftHand
								{
									OFFSET 6.09622 0.00000 0.00000
									CHANNELS 3 Xrotation Yrotation Zrotation
									JOINT LeftHandEnd
									{
										OFFSET 1.74995 0.00000 0.00000
										CHANNELS 3 Xrotation Yrotation Zrotation
										End Site
										{
											OFFSET 1.74995 0.00000 0.00000
										}
									}
									JOINT LeftHandThumb1
									{
										OFFSET 0.69998 -1.16663 -0.46665
										CHANNELS 3 Yrotation Xrotation Zrotation
										End Site
										{
											OFFSET 1.69032 -0.45292 0.00000
										}
									}
								}
							}
						}
					}
				}
			}
		}
	}
	JOINT RightUpLeg
	{
		OFFSET -2.33857 0.00000 -0.68318
		CHANNELS 3 Xrotation Yrotation Zrotation
		JOINT RightLeg
		{
			OFFSET 0.00000 0.00000 -10.74496
			CHANNELS 3 Xrotation Yrotation Zrotation
			JOINT RightFoot
			{
				OFFSET 0.00000 0.00000 -10.93085
				CHANNELS 3 Xrotation Yrotation Zrotation
				JOINT RightToeBase
				{
					OFFSET 0.00000 -4.08727 -1.48765
					CHANNELS 3 Xrotation Yrotation Zrotation
					End Site
					{
						OFFSET 0.00000 -1.89187 -0.00000
					}
				}
			}
		}
	}
	JOINT LeftUpLeg
	{
		OFFSET 2.33857 0.00000 -0.68318
		CHANNELS 3 Xrotation Yrotation Zrotation
		JOINT LeftLeg
		{
			OFFSET 0.00000 0.00000 -10.74496
			CHANNELS 3 Xrotation Yrotation Zrotation
			JOINT LeftFoot
			{
				OFFSET 0.00000 0.00000 -10.93085
				CHANNELS 3 Xrotation Yrotation Zrotation
				JOINT LeftToeBase
				{
					OFFSET 0.00000 -4.08727 -1.48765
					CHANNELS 3 Xrotation Yrotation Zrotation
					End Site
					{
						OFFSET 0.00000 -1.89187 -0.00000
					}
				}
			}
		}
	}
}
MOTION
Frames: 18
Frame Time:	0.05
 -11.6568 1.9687 22.5868 -5.8330 3.4280 162.1231 -5.1903 0.6613 0.6694 -2.9570 -0.8603 -0.0508 7.0603 -8.0338 6.9661 -0.2434 -0.2096 2.1763 -6.2552 -5.5503 -2.7141 15.9812 -1.8179 -9.7010 -12.9066 0.0646 -4.1776 -27.9795 -3.3283 37.2572 -0.0001 0.0001 124.1155 -14.6104 8.1226 16.7579 -0.0000 0.0000 -0.0000 -0.0000 0.0000 0.0000 -12.3851 2.5716 3.8906 -20.4688 -8.3453 -32.1243 -0.0000 0.0000 5.0726 0.2599 -3.6420 8.1446 0.0000 0.0000 0.0000 0.0000 -0.0000 -0.0000 -17.7996 28.3820 6.3516 13.7435 0.0000 0.0000 -3.3616 -27.9554 15.5921 4.1285 0.0000 0.0000 5.2428 -22.9591 15.5877 -1.0098 0.0000 -0.0000 -6.6345 26.7155 10.5075 1.6505 0.0000 0.0000
 -11.6261 1.9235 22.5751 -5.5232 3.3687 161.6640 -4.9421 0.0155 0.6459 -2.6442 -1.7444 -0.1426 6.6829 -6.6287 8.0508 -0.1073 -0.0642 2.3019 -5.8362 -4.9932 -2.5886 15.8130 -2.1515 -9.5474 -12.9296 1.7136 -3.4950 -26.8299 -4.7135 35.6473 -0.0001 0.0001 124.9458 -13.1799 7.8883 16.6129 -0.0000 -0.0000 0.0000 0.0000 -0.0000 -0.0000 -12.5152 1.9572 3.8742 -21.0211 -7.7414 -32.3389 -0.0000 0.0000 5.1586 -0.0911 -3.8039 8.4741 -0.0000 -0.0000 0.0000 -0.0000 -0.0000 -0.0000 -18.4950 28.2244 6.3831 14.8707 0.0000 0.0000 -3.4916 -27.7288 16.4963 3.9603 0.0000 0.0000 5.4512 -23.0728 16.1770 -0.4971 0.0000 -0.0000 -6.8758 26.9962 10.2388 1.5592 0.0000 0.0000
 -11.5514 1.8782 22.5519 -5.2198 3.1039 161.6983 -4.2042 -0.1428 0.6146 -2.0138 -2.0453 -0.1548 5.5780 -6.2479 8.6744 -0.2950 -0.1491 2.4598 -5.3459 -5.1169 -2.4861 15.4514 -2.0976 -9.5111 -12.6880 2.4625 -3.5427 -26.3162 -4.5848 34.9857 -0.0001 0.0001 125.3453 -12.6385 8.1291 16.6296 -0.0000 -0.0000 -0.0000 0.0000 -0.0000 0.0000 -12.3523 1.6590 4.1023 -21.4115 -8.1924 -32.4000 -0.0000 0.0000 4.8619 -0.5710 -3.8989 8.5441 -0.0000 -0.0000 0.0000 0.0000 -0.0000 0.0000 -19.2563 27.6931 7.4903 16.9550 0.0000 0.0000 -4.8677 -27.6375 15.7556 3.9863 0.0000 0.0000 5.2748 -23.5705 17.1032 0.4199 0.0000 0.0000 -6.5261 27.0088 8.9913 1.4941 0.0000 0.0000
 -11.5306 1.9005 22.5296 -4.9752 3.6092 161.9706 -3.9560 -0.1772 0.5251 -1.7040 -2.2904 -0.1586 4.6871 -5.3915 8.9556 -0.2380 -0.2890 2.5486 -4.6317 -5.8133 -2.3913 15.2222 -1.8315 -9.5699 -12.7565 3.9884 -3.5336 -26.1788 -5.5439 33.8018 -0.0001 0.0001 126.1947 -12.8049 8.2540 15.7867 -0.0000 -0.0000 0.0000 0.0000 -0.0000 -0.0000 -12.1534 0.4661 3.4530 -21.1716 -8.3203 -30.5240 -0.0000 0.0000 4.4829 -0.6149 -4.4620 8.8038 0.0000 -0.0000 -0.0000 -0.0000 -0.0000 -0.0000 -20.2543 28.3032 7.3054 19.0669 0.0000 0.0000 -5.5585 -27.2755 16.4373 3.8288 0.0000 0.0000 5.6028 -22.9794 15.8941 -0.2095 0.0000 -0.0000 -6.7160 26.8472 10.0480 1.7165 0.0000 0.0000
 -11.5843 1.9629 22.4778 -3.1189 4.9610 163.2335 -2.5919 0.4643 0.5517 -0.8832 -2.4355 -0.1243 3.5240 -4.0516 8.9864 -0.3645 -0.6617 2.6625 -3.6534 -7.5927 -2.8560 15.5560 -0.8825 -10.5025 -12.8424 5.3463 -4.2288 -26.5766 -5.2558 32.7753 -0.0001 0.0001 125.9199 -13.7118 9.7149 16.3286 0.0000 -0.0000 0.0000 -0.0000 -0.0000 0.0000 -10.9426 -0.9435 2.3087 -22.2876 -6.0709 -29.4758 -0.0000 0.0000 4.2978 -0.2786 -5.2152 8.7117 -0.0000 -0.0000 0.0000 0.0000 -0.0000 -0.0000 -19.7932 30.6738 7.4808 21.8480 0.0000 0.0000 -7.3566 -27.0176 16.2405 3.6175 0.0000 0.0000 6.1046 -21.0835 15.5669 0.1959 0.0000 0.0000 -6.1715 26.7388 8.4238 1.8675 0.0000 0.0000
 -11.5231 2.0981 22.3996 -1.9119 6.5417 164.1398 -3.2215 0.5028 0.4276 -1.3095 -2.2764 -0.1174 3.8170 -3.5514 8.2293 0.2051 -0.7223 2.5050 0.3382 -9.1217 -2.2084 16.7083 -0.2622 -10.6246 -11.7812 6.2455 -3.2219 -23.5889 -7.9165 33.4077 -0.0001 0.0001 127.9286 -11.6754 7.6380 15.1955 -0.0000 -0.0000 0.0000 -0.0000 -0.0000 0.0000 -10.4170 -1.9581 1.2092 -23.2008 -1.5962 -27.8152 -0.0000 0.0000 5.0764 1.0198 -5.3789 8.8634 -0.0000 -0.0000 -0.0000 -0.0000 -0.0000 0.0000 -20.7181 31.2111 14.1871 26.5096 0.0000 0.0000 -13.2354 -26.6011 9.2610 3.2605 0.0000 0.0000 7.0197 -19.3319 14.1654 -0.4615 0.0000 -0.0000 -6.1434 27.2090 8.9571 2.3411 0.0000 0.0000
 -11.1924 2.1093 22.0595 1.4560 8.7239 163.7865 -2.0537 2.0678 0.6581 -0.8356 -1.8565 0.0339 5.0562 -2.6472 8.3201 0.6507 -1.6605 3.0111 0.4584 -9.3817 -2.2877 16.9727 -0.1679 -9.9734 -11.5183 4.5871 -4.1511 -19.8752 -8.5738 38.1908 -0.0001 0.0001 125.7067 -10.1446 7.5189 15.9611 0.0000 0.0000 -0.0000 -0.0000 -0.0000 0.0000 -10.5108 -3.5376 1.5964 -24.3031 2.7325 -29.5932 -0.0000 0.0000 6.8148 1.0849 -4.9943 8.6815 -0.0000 0.0000 0.0000 0.0000 -0.0000 0.0000 -24.2734 32.5342 18.4818 36.8271 0.0000 0.0000 -18.7414 -26.6013 9.0397 3.1406 0.0000 0.0000 7.7857 -17.8514 15.2029 3.4446 0.0000 0.0000 -6.8598 29.4924 6.9034 3.6830 0.0000 0.0000
 -10.1573 1.9046 21.8365 3.4467 7.2103 164.2926 1.4266 -0.7374 0.0824 0.3571 -2.2211 0.0930 3.5622 -0.8633 9.3349 0.1866 -0.9074 2.5374 -0.3772 -3.5433 -0.7900 14.5121 -1.6903 -5.7373 -10.1189 9.7745 -2.4868 -19.4385 -14.4587 37.1564 -0.0001 0.0001 120.3222 -11.0054 8.6555 16.3833 -0.0000 -0.0000 -0.0000 -0.0000 -0.0000 0.0000 -8.9389 -9.8567 1.6733 -22.7169 2.5587 -28.7479 -0.0000 0.0000 7.0957 -0.9855 -8.5164 7.5080 0.0000 0.0000 0.0000 0.0000 0.0000 0.0000 -25.6790 29.2534 16.8077 45.9548 0.0000 0.0000 -22.6259 -25.5588 11.2750 3.7109 0.0000 0.0000 4.2671 -23.7231 18.8414 13.4940 0.0000 0.0000 -0.6462 30.2930 -0.8218 3.6797 0.0000 0.0000
 -8.3406 1.6027 22.5792 3.5523 8.4032 167.6442 1.8100 -2.1315 -0.1559 0.3765 -1.5199 0.2198 2.7050 1.4940 10.1991 0.4262 0.7737 1.4346 0.5536 1.9747 1.1499 12.0090 -2.4522 -2.1666 -10.2741 16.0719 -0.1588 -19.0366 -16.6238 33.7023 -0.0001 0.0001 117.4659 -12.0282 9.7386 15.2871 -0.0000 -0.0000 0.0000 -0.0000 0.0000 0.0000 -7.4782 -14.7515 2.5665 -18.9725 -2.2690 -31.5724 -0.0000 0.0000 4.2932 -4.4865 -18.7266 1.2409 -0.0000 -0.0000 -0.0000 0.0000 0.0000 0.0000 -22.8546 26.5803 12.1755 46.9558 0.0000 0.0000 -23.7662 -25.0154 10.8108 5.8977 0.0000 0.0000 -1.5174 -25.2515 14.2261 13.0005 0.0000 0.0000 22.4602 12.7923 -7.0460 -2.8365 0.0000 -0.0000
 -6.4055 1.1332 23.2781 3.1379 9.6966 171.8012 2.2241 -1.7263 -0.3411 0.5339 -0.0355 0.3250 2.3581 2.7929 9.7333 0.3958 1.4867 0.8285 0.3718 3.4199 1.6026 9.8209 -2.5517 -0.8756 -9.9725 19.5182 -0.4798 -19.3257 -15.7960 33.8214 -0.0001 0.0001 114.3279 -11.7831 10.3556 14.3970 0.0000 0.0000 0.0000 -0.0000 0.0000 0.0000 -6.7955 -18.8061 3.5277 -22.6101 -1.8713 -35.7648 -0.0000 0.0000 4.4312 -5.0448 -20.8782 0.7692 -0.0000 -0.0000 0.0000 -0.0000 -0.0000 0.0000 -20.2962 23.1580 7.4494 46.3163 0.0000 0.0000 -24.3447 -21.2076 8.8645 6.9134 0.0000 0.0000 -6.1391 -27.7021 10.3324 10.8155 0.0000 0.0000 25.5359 0.5146 -10.6930 -3.6656 0.0000 -0.0000
 -4.7237 0.6211 23.6668 2.5151 9.4007 172.7434 3.0405 -1.4149 -0.2670 0.8154 0.6453 0.3825 2.3564 3.1719 10.0734 0.0676 1.6300 0.8408 -1.6152 3.6805 1.6365 8.4752 -2.5620 -0.8586 -9.9402 20.4812 -0.1939 -21.7245 -15.4118 33.3196 -0.0001 0.0001 111.7964 -12.5013 9.9524 13.8375 -0.0000 -0.0000 -0.0000 0.0000 -0.0000 -0.0000 -6.5629 -20.2301 2.6708 -23.2774 -4.1818 -35.7093 -0.0000 0.0000 4.3399 -5.2723 -19.1002 0.4593 0.0000 -0.0000 -0.0000 0.0000 -0.0000 0.0000 -20.2032 17.9667 5.7519 45.7929 0.0000 0.0000 -24.2908 -18.9450 7.8956 7.7240 0.0000 0.0000 -9.4845 -32.6865 10.2517 12.3357 0.0000 0.0000 22.3206 1.1400 -8.1064 -3.7073 0.0000 -0.0000
 -3.4695 0.1715 23.9897 1.3167 9.0600 171.7654 3.4265 -1.3616 -0.2263 0.9956 0.8674 0.4027 1.8522 3.3310 10.6107 -0.4125 1.7891 0.8291 -3.2264 4.0052 1.6114 7.3483 -2.5011 -1.1841 -9.5762 21.0143 -0.0109 -24.1148 -15.4067 33.1864 -0.0001 0.0001 107.7472 -15.3024 10.6071 14.3574 -0.0000 -0.0000 0.0000 0.0000 0.0000 0.0000 -6.4341 -19.5435 2.8799 -23.7443 -4.8210 -35.3945 -0.0000 0.0000 4.4674 -5.6345 -19.7569 0.2652 -0.0000 -0.0000 0.0000 -0.0000 -0.0000 0.0000 -20.9822 13.9599 4.1273 43.3766 0.0000 0.0000 -22.1291 -15.5339 8.9943 7.8234 0.0000 0.0000 -11.0094 -35.3517 10.0263 12.2140 0.0000 0.0000 22.5279 -0.3978 -8.1525 -3.8006 0.0000 -0.0000
 -2.5434 -0.2174 24.3066 0.3085 9.0174 169.8404 3.6832 -1.3156 -0.1686 1.0422 0.8445 0.4565 1.6284 3.6350 11.2799 -0.7383 1.9392 0.9009 -4.7426 4.4583 1.3969 6.2241 -2.3438 -1.5095 -8.2220 21.6912 0.0566 -27.0965 -14.2529 29.3843 -0.0001 0.0001 104.9928 -17.1234 11.4660 14.2184 0.0000 0.0000 -0.0000 -0.0000 -0.0000 -0.0000 -6.0040 -17.6355 2.4443 -23.5505 -3.7488 -32.7944 -0.0000 0.0000 4.4589 -6.9252 -19.8277 -0.4503 0.0000 0.0000 0.0000 0.0000 -0.0000 0.0000 -21.1361 11.1916 2.8559 39.4903 0.0000 0.0000 -18.9670 -13.0269 11.1598 7.6875 0.0000 0.0000 -10.6222 -34.6712 10.4634 11.8143 0.0000 0.0000 20.8141 -0.3003 -7.0210 -4.0699 0.0000 -0.0000
 -1.8038 -0.5976 24.5901 -1.1436 8.3684 168.5545 3.7745 -1.2623 -0.0588 1.0869 0.7015 0.4605 1.4662 3.6455 10.9257 -1.1519 1.7924 0.9529 -6.6450 4.1687 1.3285 5.0161 -2.0345 -1.2563 -7.0191 19.8110 0.2234 -28.2603 -11.7955 21.0693 -0.0001 0.0001 104.4240 -18.8910 11.3241 14.6505 -0.0000 -0.0000 0.0000 -0.0000 -0.0000 -0.0000 -5.4283 -14.3747 1.2248 -20.7843 -2.3343 -27.5002 -0.0000 0.0000 4.1259 -7.8438 -18.6953 -2.0840 0.0000 -0.0000 -0.0000 -0.0000 0.0000 0.0000 -20.5892 7.7932 2.5960 34.1481 0.0000 0.0000 -15.6793 -9.9642 11.3925 7.2971 0.0000 0.0000 -11.2324 -31.3512 10.2760 11.9674 0.0000 0.0000 17.1911 -1.0539 -6.4292 -3.9165 0.0000 -0.0000
 -1.2236 -0.9099 24.7973 -2.8069 6.5551 168.6555 3.6454 -1.7382 0.0493 1.0849 0.3205 0.3467 1.5183 3.0975 9.0265 -1.5431 1.5292 0.7802 -8.3179 3.7137 1.3396 3.7506 -1.8487 -0.5677 -6.1664 13.9203 0.0218 -26.2181 -9.4918 12.4159 -0.0000 0.0001 99.1194 -17.4962 12.3747 14.8852 -0.0000 0.0000 -0.0000 0.0000 0.0000 0.0000 -5.9938 -10.3414 0.0871 -18.3867 2.3667 -21.5395 -0.0000 0.0000 4.5415 -5.5406 -15.8740 -2.8197 -0.0000 0.0000 0.0000 -0.0000 0.0000 0.0000 -18.9240 4.0156 1.5902 27.6452 0.0000 0.0000 -12.3063 -7.2841 10.8946 6.9028 0.0000 0.0000 -12.7005 -26.5257 9.2864 11.7229 0.0000 0.0000 15.3672 0.4423 -7.1078 -4.0922 0.0000 -0.0000
 -0.8600 -1.1675 24.8614 -4.0761 4.8142 169.3319 3.3359 -2.3073 0.0197 0.9197 -0.4104 0.1466 2.7319 2.7014 6.3923 -1.6472 1.8041 0.1042 -10.4921 3.4637 1.6666 2.9160 -1.8778 -0.1567 -4.3724 6.3242 -0.6608 -23.8611 -7.1027 7.1990 -0.0000 0.0001 83.4286 -16.0539 15.2033 15.4337 -0.0000 0.0000 0.0000 0.0000 -0.0000 0.0000 -5.7230 -6.1673 0.7232 -16.5062 6.1768 -16.0637 -0.0000 0.0000 4.0834 -4.6161 -12.1220 -3.3888 -0.0000 0.0000 -0.0000 0.0000 0.0000 0.0000 -17.8330 1.2450 -0.3291 22.9878 0.0000 0.0000 -9.8066 -4.4701 11.1027 6.4182 0.0000 0.0000 -14.1187 -20.1940 11.9243 12.8911 0.0000 0.0000 4.7293 -0.6361 -5.1669 -3.3960 0.0000 -0.0000
 -0.6681 -1.3756 24.8563 -4.8832 4.3963 171.4374 3.1298 -1.7817 -0.1686 0.8429 -0.6871 -0.0001 3.8875 2.3602 3.7016 -1.6947 1.9845 -0.5705 -12.3277 3.4862 0.6832 3.2711 -1.7105 -1.3126 -3.2437 0.6809 -0.8129 -21.1464 -5.0802 3.7824 -0.0000 0.0001 60.8206 -11.1328 17.0791 13.1848 0.0000 0.0000 -0.0000 0.0000 -0.0000 -0.0000 -4.6290 -2.3051 0.2751 -15.3009 7.3435 -11.7176 -0.0000 0.0000 2.0587 -5.9466 -11.3483 -5.6909 0.0000 -0.0000 -0.0000 0.0000 -0.0000 -0.0000 -17.8604 0.2686 -1.8805 20.8852 0.0000 0.0000 -8.5854 0.6592 9.5082 4.9520 0.0000 0.0000 -16.5225 -12.7658 17.4341 16.5443 0.0000 0.0000 -4.4265 -3.0545 -2.0017 -3.1839 0.0000 -0.0000
 -0.5481 -1.5465 24.8403 -5.8812 3.3043 174.1277 3.1308 -1.8734 -0.2685 0.8112 -1.0923 -0.1379 4.2149 1.9543 2.0434 -1.6624 2.0418 -1.0566 -12.9857 3.9989 -1.5962 3.2171 -1.5056 -4.3333 -4.1044 -1.7356 -1.3755 -17.0251 -4.1213 1.4732 -0.0000 0.0000 38.6737 -9.7196 16.7507 8.5654 0.0000 -0.0000 0.0000 0.0000 0.0000 0.0000 -4.2946 -0.3800 0.6184 -13.7501 9.8128 -11.8098 -0.0000 0.0000 2.1605 -5.6312 -8.1631 -7.3122 -0.0000 0.0000 0.0000 -0.0000 0.0000 -0.0000 -18.0775 -0.9091 -3.0122 19.2749 0.0000 0.0000 -7.6450 2.3748 7.4586 4.5744 0.0000 0.0000 -19.3570 -7.6957 18.0690 20.9060 0.0000 0.0000 -9.2304 -2.2089 -1.3461 -2.6974 0.0000 -0.0000
